PathFileType	4	(X/Y/Z)	E:\Qualisys_Data\Carbon_Farble_Plate\Data\Amateur_Runner\S2\T2\S2T2V11_c3d.trc
DataRate	CameraRate	NumFrames	NumMarkers	Units	OrigDataRate	OrigDataStartFrame	OrigNumFrames
200.000000	200.000000	4	39	mm	200.000000	163	326
Frame#	Time	LSHO			RSHO			LICST			RICST			LASIS			LHEEL			RASIS			LTROC			RTROC			SACR			LTH1			LSK4			LTH2			LTH3			RHM5			LSK2			LTH4			RTH1			LTOE			RTH2			RTH3			RTH4			LLEP			RLEP			LSK1			LSK3			RSK1			LHM5			RSK2			LFT1			RSK3			RSK4			LLME			RLME			RTOE			RHEEL			RFT1			RFT2			LFT2			
		X1	Y1	Z1	X2	Y2	Z2	X3	Y3	Z3	X4	Y4	Z4	X5	Y5	Z5	X6	Y6	Z6	X7	Y7	Z7	X8	Y8	Z8	X9	Y9	Z9	X10	Y10	Z10	X11	Y11	Z11	X12	Y12	Z12	X13	Y13	Z13	X14	Y14	Z14	X15	Y15	Z15	X16	Y16	Z16	X17	Y17	Z17	X18	Y18	Z18	X19	Y19	Z19	X20	Y20	Z20	X21	Y21	Z21	X22	Y22	Z22	X23	Y23	Z23	X24	Y24	Z24	X25	Y25	Z25	X26	Y26	Z26	X27	Y27	Z27	X28	Y28	Z28	X29	Y29	Z29	X30	Y30	Z30	X31	Y31	Z31	X32	Y32	Z32	X33	Y33	Z33	X34	Y34	Z34	X35	Y35	Z35	X36	Y36	Z36	X37	Y37	Z37	X38	Y38	Z38	X39	Y39	Z39	

164	0.815	-53.41024398803711	1494.691284179688	-506.4845275878906	-114.1227645874023	1474.822265625	-208.6352844238281	-110.979866027832	1025.30126953125	-507.5354309082031	-109.8384704589844	1018.424499511719	-209.1323394775391	-59.12920761108398	972.5715942382812	-492.6993103027344	-621.8086547851562	410.4805603027344	-424.6133117675781	-50.13872528076172	973.1181640625	-236.8467712402344	-203.146728515625	918.19287109375	-511.826171875	-181.9246520996094	910.8497314453124	-195.9185333251953	-206.2138214111328	1063.529907226562	-362.7950744628906	-155.5960083007812	676.2666625976562	-520.4249877929688	-482.4013366699219	473.5681457519531	-508.1445922851562	-234.960205078125	700.5101928710938	-526.7484741210938	-187.5882110595703	578.6448974609375	-509.4160766601562	210.5706939697266	139.1012268066406	-211.1178436279297	-393.9164123535156	518.1246948242188	-520.7650756835938	-267.77978515625	606.6150512695312	-504.6799011230469	16.14222145080566	684.3271484375	-184.4753265380859	-651.7264404296875	162.1533203125	-441.7533874511719	-60.5622673034668	660.1890869140625	-179.34814453125	41.9374885559082	590.2866821289062	-215.7869415283203	-36.1573600769043	569.5997314453125	-206.9022064208984	-259.2126770019531	540.3079833984375	-511.0330810546875	11.95263195037842	536.5217895507812	-211.1393890380859	-358.3007507324219	448.861572265625	-519.4749755859375	-447.3941040039062	403.2088928222656	-512.4572143554688	70.13066101074219	427.1226196289062	-211.955322265625	-678.4931030273438	219.8078765869141	-492.7849731445312	-6.554521083831787	411.4331665039062	-196.2122802734375	-644.3177490234375	401.0747985839844	-395.2164611816406	90.16611480712892	327.4257202148438	-221.64111328125	11.6742057800293	314.7843627929688	-208.0896453857422	-622.1549682617188	350.5213317871094	-485.5874938964844	90.57791900634766	131.9073028564453	-242.6071319580078	266.2051391601562	192.4632415771484	-265.5714416503906	40.6264762878418	90.10337066650392	-302.0247192382812	70.27861785888672	73.34136962890625	-331.0921630859375	54.95528793334961	61.52555847167969	-278.3690490722656	-658.74853515625	409.0752258300781	-447.7390747070312
165	0.82	-37.30390548706055	1490.65380859375	-505.8226928710938	-98.10026550292967	1470.48486328125	-207.4531707763672	-94.57924652099608	1021.439392089844	-507.1443786621094	-93.84842681884766	1014.648742675781	-208.6096954345703	-42.90282821655273	969.0814208984376	-492.294921875	-603.513916015625	414.567626953125	-423.6270141601562	-34.04653167724609	969.75	-236.1416931152344	-186.2457580566406	914.2214965820312	-511.7504577636719	-165.4300842285156	906.36083984375	-195.2922058105469	-190.1005554199219	1058.982666015625	-362.4433288574219	-137.0435485839844	671.979736328125	-521.2210693359375	-462.3433837890625	473.2864074707031	-508.3753662109375	-216.4221954345703	695.3358764648438	-526.9090576171875	-167.5763549804688	574.1541137695312	-510.1655578613281	222.3633728027344	133.6065216064453	-211.5029144287109	-372.9586486816406	516.1539306640625	-521.7401733398438	-248.3345184326172	601.1891479492188	-505.28369140625	32.95493698120117	681.448486328125	-185.2869720458984	-638.90869140625	166.7863616943359	-442.162353515625	-43.54251098632812	656.8196411132812	-180.7728576660156	59.40252685546875	587.66650390625	-217.3057250976562	-18.47608184814453	566.3035888671875	-208.1478118896484	-238.9098052978516	535.369873046875	-511.8748168945312	28.82281875610352	532.5619506835938	-211.4913024902344	-339.251220703125	445.3451232910156	-519.72412109375	-429.4729919433594	402.09716796875	-512.7987060546875	85.85408020019531	422.4142761230469	-211.8579864501953	-664.4231567382812	225.1187133789062	-492.9580688476562	9.345651626586914	407.0356750488281	-196.6146545410156	-626.5172729492188	405.1572875976562	-395.4382934570312	104.1843338012695	322.4192504882812	-221.7599029541016	25.85999870300293	310.9020080566406	-208.3245239257812	-605.0934448242188	354.7250366210938	-485.3445129394531	102.4495620727539	127.1835174560547	-242.9867095947266	278.4445495605469	186.6871337890625	-265.9039001464844	52.20502853393555	85.87667083740234	-302.4490966796875	82.2131118774414	68.5285415649414	-331.3706970214844	65.92327117919922	56.90834808349609	-279.0977783203125	-640.269775390625	413.7308044433594	-447.5989990234375
166	0.825	-20.9288387298584	1486.606811523438	-505.1104125976562	-82.24976348876953	1465.584716796875	-206.4009704589844	-77.90730285644531	1017.322143554688	-506.8258056640625	-77.84800720214844	1010.717468261719	-207.7643585205078	-26.05867767333984	965.1783447265624	-491.6333312988281	-584.86572265625	418.0521240234375	-422.4981079101562	-17.59893798828125	965.8761596679688	-235.3747253417969	-169.4057006835938	909.68017578125	-511.7711791992188	-149.4698791503906	902.1040649414062	-194.7902984619141	-173.2926330566406	1054.66650390625	-361.966796875	-117.9898300170898	667.6470336914062	-522.6548461914062	-442.1958618164062	472.7681274414062	-508.3311767578125	-197.9721527099609	690.0621337890625	-526.99609375	-147.4988555908203	569.1002807617188	-511.8313598632812	233.1925354003906	127.3257293701172	-211.8202362060547	-351.7632446289062	513.2805786132812	-522.0198364257812	-228.4407653808594	595.2473754882812	-505.2613830566406	49.7360954284668	678.42138671875	-186.4840698242188	-625.0994262695312	171.8818206787109	-442.3143615722656	-26.24433326721191	653.6404418945312	-182.2525482177734	76.82432556152344	585.1043090820312	-218.2458648681641	-0.4691166281700134	563.4989013671875	-209.81103515625	-218.2356414794922	529.3723754882812	-513.1531982421875	46.17184829711914	529.227783203125	-212.0380859375	-319.9704284667969	441.6812438964844	-520.366455078125	-411.3061218261719	401.1085510253906	-512.771484375	101.1548233032227	417.2464294433594	-212.3947143554688	-649.25146484375	230.2962951660156	-492.988037109375	23.71297454833984	403.7221374511719	-196.8048553466797	-608.267333984375	408.8336791992188	-394.7393798828125	118.2671890258789	317.0548095703125	-222.3343048095703	39.61542892456055	306.4130859375	-209.1247863769531	-587.994140625	358.5908203125	-484.4400024414062	113.7619705200195	122.3232116699219	-243.2102661132812	289.976806640625	179.9490203857422	-266.2854919433594	63.1942253112793	81.3103256225586	-303.0369567871094	92.65007019042967	63.72854614257812	-331.9352111816406	76.47057342529297	52.05819320678711	-279.29248046875	-621.5919189453125	418.5978393554688	-446.7087097167969
167	0.83	-4.976555347442627	1481.939086914062	-504.5376586914062	-66.34906768798828	1460.509765625	-205.2699890136719	-61.5882682800293	1012.815551757812	-506.2597351074219	-62.27916717529297	1006.187622070312	-208.0987091064453	-9.508079528808594	961.0449829101562	-490.8452758789062	-565.81396484375	421.3913879394531	-422.1166381835938	-1.429577231407166	961.8336791992188	-234.3484039306641	-152.7673645019531	904.601806640625	-511.4093627929688	-133.0469970703125	897.4989013671875	-194.1542205810547	-157.1050262451172	1049.841918945312	-361.6168212890625	-98.9396743774414	663.013671875	-523.5134887695312	-421.9212036132812	472.1488952636719	-508.1686401367188	-179.1728057861328	683.9700927734375	-526.67333984375	-127.4167709350586	563.9547729492188	-513.4677734375	243.6276550292969	121.0798873901367	-212.1568450927734	-330.5032043457031	509.9522399902344	-522.8881225585938	-208.3613433837891	588.8047485351562	-505.6805419921875	66.78010559082031	675.080322265625	-188.2536773681641	-610.4131469726562	175.6398162841797	-442.7785949707031	-9.351030349731444	650.3779907226562	-183.8414611816406	94.08268737792967	581.6128540039062	-219.9431457519531	16.92226982116699	560.2122802734375	-210.7380523681641	-197.6150512695312	523.6696166992188	-513.79052734375	62.77115249633789	524.9573364257812	-212.7576751708984	-299.7084655761719	437.1297912597656	-520.268310546875	-392.4093627929688	399.3949279785156	-512.7025146484375	116.2084045410156	412.10595703125	-212.4692230224609	-633.5336303710938	235.2551574707031	-493.0578918457031	38.98576736450195	399.5000610351562	-197.1015014648438	-589.0370483398438	412.7830810546875	-393.9355773925781	131.7495269775391	311.1725769042969	-222.6527709960938	52.82433319091797	301.9904174804688	-209.3833923339844	-570.2574462890625	362.3782348632812	-483.4902954101562	124.0668411254883	116.9221343994141	-243.6505432128906	300.9016418457031	172.7350311279297	-266.7745361328125	73.11212158203125	76.1579360961914	-303.1617126464844	102.7121353149414	58.58331298828125	-332.241943359375	86.19577026367188	47.05456161499023	-279.7518615722656	-602.415771484375	422.9879150390625	-445.6724243164062
